<svg width="76" height="76" viewBox="0 0 76 76" fill="none" xmlns="http://www.w3.org/2000/svg">
<g clip-path="url(#clip0)">
<path d="M74.243 15.9067C73.8302 15.2547 73.1164 14.8655 72.3356 14.8655H57.9239C56.4992 6.54481 49.1541 0.180176 40.3112 0.180176C30.4506 0.180176 22.4289 8.0853 22.4289 17.8026C22.4289 26.1395 28.6013 30.9724 30.9245 32.7919C31.0869 32.9197 31.233 33.0328 31.3567 33.1312C31.2956 34.0989 31.0065 36.2665 29.6221 37.2225C28.6296 37.9098 27.1096 37.9127 25.1083 37.2254C23.3498 36.6219 21.6912 35.5601 20.1787 34.0681L11.3225 25.3406C10.6832 24.7135 9.81736 24.3875 8.90387 24.4536C8.0023 24.5197 7.17524 24.9691 6.6343 25.6886C4.33344 28.752 0.61838 35.2561 1.56614 44.2685C1.57211 44.5197 1.73454 50.5098 4.01007 57.199C7.08881 66.2481 12.5936 72.1619 19.9269 74.3016C21.7076 74.8229 23.6658 75.0755 25.913 75.0755H36.1327C40.7032 75.0755 45.1231 73.7714 48.9127 71.3057L49.2971 71.0546C59.9312 64.0086 63.7774 50.5377 58.2443 39.7205C56.6036 36.5132 54.3444 33.958 51.5145 32.1105C52.0823 31.4115 52.7544 30.5392 53.4488 29.5509H61.405C63.1709 29.5509 64.8056 29.103 66.1349 28.2586C70.1524 25.7018 73.0106 20.7617 74.3578 18.0434C74.6975 17.3547 74.6558 16.5558 74.243 15.9067ZM55.5843 41.0422C60.4423 50.5407 57.0253 62.3961 47.5834 68.6506L47.2734 68.8548C43.9697 71.0032 40.1175 72.1384 36.1327 72.1384H25.913C23.9563 72.1384 22.2769 71.924 20.7733 71.4864C5.27524 66.9633 4.5525 44.4286 4.53909 44.085C3.68669 35.9405 6.98748 30.1574 9.03054 27.4362L7.83242 26.5624L9.21532 27.4171L18.0716 36.1431C19.903 37.9509 21.9416 39.2476 24.1262 39.998C27.0858 41.0143 29.5073 40.888 31.3343 39.625C34.0062 37.7776 34.3341 34.2194 34.3505 32.7831C34.3609 32.2001 34.1299 31.6553 33.7022 31.2514C33.5055 31.0664 33.1866 30.8124 32.7768 30.4907C30.5713 28.7637 25.4078 24.7209 25.4078 17.8011C25.4078 9.70363 32.0928 3.11578 40.3098 3.11578C47.9679 3.11578 54.2893 8.84013 55.1149 16.174L55.1417 16.4662C55.1819 16.9068 55.2117 17.3503 55.2117 17.8011C55.2117 18.2549 55.1551 18.7322 55.0716 19.2183C55.0567 19.3064 55.0433 19.393 55.0254 19.4826C54.8228 20.5106 54.4607 21.5944 53.9749 22.6987C53.9659 22.7193 53.957 22.7398 53.948 22.7604C53.4473 23.8867 52.8259 25.0278 52.136 26.1409C52.0778 26.2335 52.0152 26.3274 51.9556 26.4214C50.92 28.0588 49.7501 29.6272 48.6027 30.9768C48.2033 31.4453 48.0349 32.0591 48.1392 32.6598C48.245 33.2721 48.6206 33.8052 49.169 34.1254C51.8886 35.7099 54.0479 38.0361 55.5843 41.0422ZM64.5195 25.79C63.6731 26.3289 62.5956 26.6138 61.405 26.6138H55.3265C55.5455 26.232 55.7571 25.8428 55.9628 25.4463C55.9851 25.4052 56.006 25.3641 56.0269 25.323C56.1878 25.0102 56.3428 24.693 56.4918 24.3728C56.5335 24.2818 56.5782 24.1907 56.6185 24.1011C56.7347 23.8442 56.8435 23.5872 56.9493 23.3272C56.9985 23.2068 57.0521 23.0864 57.0983 22.9674C57.1818 22.753 57.2563 22.5372 57.3323 22.3213C57.3829 22.1744 57.441 22.0261 57.4872 21.8822C57.526 21.7647 57.5543 21.6458 57.5901 21.5268C57.748 20.9996 57.8792 20.4827 57.973 19.9804C57.9835 19.929 57.9969 19.8762 58.0058 19.8248C58.0505 19.5737 58.0789 19.3299 58.1072 19.0861C58.1191 18.9906 58.137 18.8952 58.1459 18.7997C58.1772 18.462 58.1936 18.1286 58.1936 17.8041H71.1374C69.8976 20.0965 67.5312 23.8735 64.5195 25.79Z" fill="#5D62B5"/>
<path d="M50.7423 14.8656C50.7423 10.8169 47.3998 7.52295 43.2913 7.52295C39.1828 7.52295 35.8403 10.8169 35.8403 14.8656C35.8403 18.9144 39.1828 22.2083 43.2913 22.2083C47.3998 22.2083 50.7423 18.9144 50.7423 14.8656ZM38.8207 14.8656C38.8207 12.4367 40.8265 10.46 43.2913 10.46C45.3478 10.46 47.0675 11.8434 47.5861 13.7099C47.1882 13.516 46.7456 13.3971 46.2717 13.3971C44.625 13.3971 43.2913 14.7114 43.2913 16.3342C43.2913 17.484 43.9679 18.4679 44.9439 18.9511C44.4313 19.1523 43.8755 19.2712 43.2913 19.2712C40.8265 19.2712 38.8207 17.2946 38.8207 14.8656Z" fill="#5D62B5"/>
<path d="M40.1221 43.5811C37.7363 42.3079 34.8036 42.5238 31.3911 44.2288C27.9189 45.966 23.9326 47.3141 19.2057 48.3509L18.641 48.4743C17.9525 48.6256 17.3683 49.0632 17.042 49.6755C16.7156 50.2835 16.6769 50.9972 16.9362 51.636C18.1805 54.72 22.9983 64.7677 32.7948 64.8132C32.9155 64.822 33.145 64.8367 33.458 64.8367C34.9139 64.8367 38.1804 64.5415 40.8672 62.164C43.4661 59.8628 44.7835 56.3075 44.7835 51.5979L44.7745 51.4407C44.7477 51.2072 44.1054 45.7105 40.1221 43.5811ZM38.8987 59.9568C36.4101 62.1816 33.0452 61.885 33.0199 61.885L32.8619 61.8761C25.4541 61.8761 21.374 54.3778 19.9762 51.1911C24.8968 50.1044 29.0738 48.6828 32.7427 46.8472C35.2164 45.6092 37.2192 45.3727 38.693 46.1569C41.1221 47.4463 41.7271 51.147 41.8031 51.6874C41.7852 55.466 40.8091 58.2474 38.8987 59.9568Z" fill="#5D62B5"/>
</g>
<defs>
<clipPath id="clip0">
<rect width="76" height="74.8953" fill="white" transform="translate(0 0.180176)"/>
</clipPath>
</defs>
</svg>
