<svg width="76" height="76" viewBox="0 0 76 76" fill="none" xmlns="http://www.w3.org/2000/svg">
<g clip-path="url(#clip0)">
<path d="M72.2003 0.180176H31.667C31.4746 0.183505 31.2857 0.230491 31.1147 0.317484C21.0926 1.27253 13.2718 9.28266 12.6898 19.1886C12.5773 21.6348 12.9207 24.0806 13.7031 26.4048C6.16133 26.6699 0.204541 32.8038 0.266996 40.2405C0.32945 47.6771 6.38844 53.7131 13.9337 53.8551H63.3337C66.1319 53.8551 68.4003 56.0906 68.4003 58.8482C68.4003 61.6057 66.1319 63.8412 63.3337 63.8412H36.7337C36.7337 62.4624 35.5995 61.3447 34.2003 61.3447H24.067C22.6679 61.3447 21.5337 62.4624 21.5337 63.8412H18.4557C17.9426 63.812 17.505 63.465 17.3663 62.9774C16.4513 60.5056 14.0702 58.8577 11.4003 58.8482H6.33366C2.83759 58.8523 0.00451372 61.6442 0.00032597 65.0894V71.1934C-0.0239488 73.0568 1.31006 74.6696 3.16699 75.0218C3.37633 75.0561 3.58811 75.0741 3.80033 75.0755C4.80815 75.0755 5.77469 74.6809 6.48733 73.9787C7.19997 73.2764 7.60033 72.3239 7.60033 71.3307V66.3377L10.2743 66.3826C10.9009 69.2618 13.4789 71.3216 16.467 71.3307H21.5337C21.5337 72.7095 22.6679 73.8272 24.067 73.8272H34.2003C35.5995 73.8272 36.7337 72.7095 36.7337 71.3307H63.3337C70.3293 71.3307 76.0003 65.7421 76.0003 58.8482C76.0003 51.9542 70.3293 46.3656 63.3337 46.3656H13.9337C10.4359 46.3656 7.60033 43.5713 7.60033 40.1243C7.60033 36.6774 10.4359 33.8831 13.9337 33.8831H18.2201C18.2365 33.9005 18.2505 33.9193 18.2669 33.9367C22.08 37.9053 27.3878 40.1446 32.9337 40.1243C41.7763 40.1243 47.9753 36.4432 52.0755 34.0079L52.5822 33.7046C57.9123 30.5527 70.4688 22.9521 74.189 20.6977C75.3178 20.0206 76.0049 18.8108 76.0003 17.5085V3.92494C76.0003 1.85676 74.299 0.180176 72.2003 0.180176V0.180176ZM16.467 68.8342C14.6769 68.8293 13.1318 67.5965 12.7544 65.8721C12.528 64.6966 11.4871 63.8447 10.273 63.8412H7.60033C6.20121 63.8412 5.06699 64.9589 5.06699 66.3377V71.3307C5.06667 71.7007 4.89983 72.0515 4.61147 72.2884C4.32311 72.5253 3.94296 72.624 3.57359 72.5577C2.94298 72.4028 2.50896 71.8334 2.53366 71.1934V65.0894C2.53366 63.0213 4.23498 61.3447 6.33366 61.3447H11.4003C13.0023 61.3501 14.4313 62.3384 14.9812 63.8212C15.4721 65.3074 16.8698 66.3197 18.4557 66.3377H21.5337V68.8342H16.467ZM43.067 2.67669V3.92494C43.067 4.61433 42.4999 5.1732 41.8003 5.1732H34.2003C33.5008 5.1732 32.9337 4.61433 32.9337 3.92494V2.70165C33.1135 2.70165 33.2896 2.67669 33.4707 2.67669H43.067ZM24.067 71.3307V63.8412H34.2003V71.3307H24.067ZM13.9337 31.3865C9.03674 31.3865 5.06699 35.2986 5.06699 40.1243C5.06699 44.9501 9.03674 48.8621 13.9337 48.8621H63.3337C68.9301 48.8621 73.467 53.333 73.467 58.8482C73.467 64.3633 68.9301 68.8342 63.3337 68.8342H36.7337V66.3377H63.3337C67.531 66.3377 70.9337 62.9845 70.9337 58.8482C70.9337 54.7118 67.531 51.3586 63.3337 51.3586H13.9337C7.63761 51.3586 2.53366 46.3289 2.53366 40.1243C2.53366 33.9198 7.63761 28.89 13.9337 28.89H14.7C15.1368 29.7575 15.638 30.592 16.1997 31.3865H13.9337ZM73.467 17.5085C73.4695 17.9414 73.2417 18.344 72.8666 18.5695C69.1477 20.8238 56.6026 28.4182 51.2813 31.565L50.7683 31.8684C46.9075 34.1627 41.072 37.6278 32.9337 37.6278C28.0814 37.628 23.4409 35.6687 20.0939 32.2066C16.7469 28.7445 14.9856 24.0821 15.2206 19.3059C15.7144 10.9982 22.0484 4.1682 30.4003 2.93757V3.92494C30.4003 5.99312 32.1016 7.66971 34.2003 7.66971H41.8003C43.899 7.66971 45.6003 5.99312 45.6003 3.92494V2.67669H72.2003C72.8999 2.67669 73.467 3.23555 73.467 3.92494V17.5085Z" fill="#5D62B5"/>
<path d="M67.1333 5.17334H50.6667C48.568 5.17334 46.8667 6.84993 46.8667 8.9181V17.8693C46.8635 18.8635 47.2645 19.8174 47.9801 20.5181L50.972 23.4665C51.6885 24.1683 52.6585 24.5611 53.6687 24.5587C54.2938 24.5597 54.9093 24.4074 55.4598 24.1156L68.9345 16.9656C70.1658 16.3124 70.9335 15.0457 70.9333 13.6677V8.9181C70.9333 6.84993 69.232 5.17334 67.1333 5.17334V5.17334ZM68.4 13.6677C68.4002 14.1272 68.1443 14.5496 67.7337 14.7674L54.2577 21.9174C53.7652 22.1756 53.1596 22.0881 52.763 21.7015L49.7712 18.7531C49.5333 18.5188 49.3998 18.2008 49.4 17.8693V8.9181C49.4 8.22871 49.9672 7.66985 50.6667 7.66985H67.1333C67.8329 7.66985 68.4 8.22871 68.4 8.9181V13.6677Z" fill="#5D62B5"/>
</g>
<defs>
<clipPath id="clip0">
<rect width="76" height="74.8953" fill="white" transform="translate(0 0.180176)"/>
</clipPath>
</defs>
</svg>
