<svg width="76" height="76" viewBox="0 0 76 76" fill="none" xmlns="http://www.w3.org/2000/svg">
<g clip-path="url(#clip0)">
<path d="M67.1325 8.55787V1.43283C67.1325 0.743481 66.5659 0.18457 65.8658 0.18457H25.3325C24.633 0.18457 24.0658 0.743481 24.0658 1.43283V8.6042L16.6204 22.0552C16.519 22.2387 16.4658 22.4441 16.4658 22.6532V48.8665H18.9992V22.9713L26.0852 10.1706H63.732L57.1538 22.0552C57.0523 22.2387 56.9991 22.4441 56.9991 22.6532V67.5903H46.8658V70.0868H69.6658C73.1621 70.0826 75.9954 67.2911 75.9991 63.8456V22.6532C75.9985 22.4161 75.9305 22.1838 75.8018 21.9827L67.1325 8.55787ZM26.5992 7.6741V2.68108H64.5991V7.6741H26.5992ZM73.4658 63.8456C73.4658 65.9136 71.765 67.5903 69.6658 67.5903H59.5325V22.9713L65.9499 11.3774L73.4658 23.0164V63.8456Z" fill="#5D62B5"/>
<path d="M18.2546 52.9384C17.6837 52.7221 17.0776 52.6111 16.4659 52.6111C14.1564 52.6136 12.1402 54.1526 11.5606 56.3559H11.3992C8.60117 56.3559 6.33255 58.5915 6.33255 61.3489H5.06589C4.521 61.3495 4.03734 61.6933 3.8654 62.2028L0.0653988 73.4371C-0.0632471 73.8175 0.00169436 74.2356 0.239194 74.561C0.477313 74.8865 0.858921 75.0797 1.26589 75.0797H44.3326C44.7395 75.0797 45.1217 74.8865 45.3599 74.561C45.5974 74.2356 45.6623 73.8175 45.5337 73.4371L41.7337 62.2028C41.5617 61.6933 41.0781 61.3495 40.5326 61.3489H39.2659C39.2659 58.5915 36.9979 56.3559 34.1992 56.3559H34.0384C33.4589 54.1526 31.4426 52.6136 29.1326 52.6111C28.5215 52.6111 27.9154 52.7221 27.3445 52.9384C26.5077 51.2129 24.7394 50.1152 22.7992 50.1152C20.859 50.1152 19.0914 51.2129 18.2546 52.9384V52.9384ZM39.6197 63.8454L42.5748 72.5832H3.02425L5.9794 63.8454H39.6197ZM25.306 54.9376C25.3394 55.4167 25.6486 55.8336 26.1007 56.0115C26.5528 56.1895 27.068 56.0963 27.4268 55.772C28.1628 55.0955 29.2365 54.9157 30.158 55.3137C31.0796 55.7123 31.6727 56.6125 31.6659 57.6042C31.6659 58.2935 32.233 58.8524 32.9326 58.8524H34.1992C35.5989 58.8524 36.7326 59.9702 36.7326 61.3489H8.86589C8.86589 59.9702 10.0002 58.8524 11.3992 58.8524H12.6659C13.366 58.8524 13.9326 58.2935 13.9326 57.6042C13.9276 56.6137 14.5201 55.7147 15.4404 55.3161C16.3607 54.9181 17.4338 55.0973 18.1698 55.772C18.5285 56.0963 19.0438 56.1895 19.4959 56.0115C19.948 55.8336 20.2566 55.4167 20.29 54.9376C20.3741 53.6333 21.4726 52.6172 22.7992 52.6172C24.1259 52.6172 25.2243 53.6333 25.3091 54.9376H25.306Z" fill="#5D62B5"/>
<path d="M31.665 30.1426H34.1984V32.6391H31.665V30.1426Z" fill="#5D62B5"/>
<path d="M44.332 30.1426H46.8654V32.6391H44.332V30.1426Z" fill="#5D62B5"/>
<path d="M50.6326 15.4671L45.1268 20.1565H33.9903L28.0026 15.4372C27.4986 15.0392 26.7719 15.0794 26.3154 15.5292C24.8273 16.9932 24.0146 18.9954 24.0684 21.0665C24.1222 23.1382 25.037 25.0965 26.5987 26.4838V40.1286C26.5987 47.0227 32.2702 52.6112 39.2654 52.6112C46.2611 52.6112 51.932 47.0227 51.932 40.1286V26.6349C53.4424 25.2574 54.3466 23.3534 54.453 21.3286C54.5817 19.2118 53.8376 17.1328 52.391 15.5627C51.9271 15.0691 51.149 15.0264 50.6326 15.4671V15.4671ZM26.608 21.1616C26.5498 20.1053 26.8275 19.0582 27.4033 18.1653L31.3085 21.2451L28.0899 24.4157C27.211 23.5441 26.684 22.3873 26.608 21.1616ZM39.2654 50.1147C37.8923 50.1147 36.732 49.2571 36.732 48.2423C36.732 47.2275 37.8923 46.3699 39.2654 46.3699C40.6384 46.3699 41.7987 47.2275 41.7987 48.2423C41.7987 49.2571 40.6384 50.1147 39.2654 50.1147V50.1147ZM49.3987 40.1286C49.395 43.7192 47.435 47.0306 44.2665 48.803C44.3023 48.6177 44.3246 48.4306 44.332 48.2423C44.1434 45.6641 41.8841 43.7155 39.2654 43.8734C36.6473 43.7155 34.3879 45.6641 34.1987 48.2423C34.2067 48.4306 34.229 48.6177 34.2649 48.803C31.0957 47.0306 29.1363 43.7192 29.132 40.1286V26.9147L33.4565 22.6531H45.0748L47.6082 25.1496H45.5987C42.1011 25.1496 39.2654 27.9441 39.2654 31.3908C39.2654 34.8376 42.1011 37.6321 45.5987 37.6321H49.3987V40.1286ZM49.3987 35.1356H45.5987C43.5002 35.1356 41.7987 33.4589 41.7987 31.3908C41.7987 29.3228 43.5002 27.6461 45.5987 27.6461H49.3987V35.1356ZM50.5126 24.4816L47.4585 21.4725L51.2499 18.2415C51.7508 19.1423 51.9846 20.1645 51.9234 21.1903C51.8547 22.4154 51.3556 23.5789 50.5126 24.4816V24.4816Z" fill="#5D62B5"/>
<path d="M69.6654 55.1079H63.3321C62.6326 55.1079 62.0654 55.6668 62.0654 56.3562V61.3492C62.0654 62.0385 62.6326 62.5974 63.3321 62.5974H69.6654C70.3656 62.5974 70.9321 62.0385 70.9321 61.3492V56.3562C70.9321 55.6668 70.3656 55.1079 69.6654 55.1079ZM68.3988 60.1009H64.5988V57.6044H68.3988V60.1009Z" fill="#5D62B5"/>
<path d="M62.0654 50.1147H68.3988V52.6113H62.0654V50.1147Z" fill="#5D62B5"/>
<path d="M62.0654 45.1216H70.9321V47.6181H62.0654V45.1216Z" fill="#5D62B5"/>
<path d="M46.8652 62.5972H54.4652V65.0937H46.8652V62.5972Z" fill="#5D62B5"/>
<path d="M46.8652 57.6045H54.4652V60.101H46.8652V57.6045Z" fill="#5D62B5"/>
<path d="M62.0654 40.1289H70.9321V42.6254H62.0654V40.1289Z" fill="#5D62B5"/>
<path d="M62.0654 35.1357H65.8654V37.6323H62.0654V35.1357Z" fill="#5D62B5"/>
<path d="M68.3989 35.1357H70.9323V37.6323H68.3989V35.1357Z" fill="#5D62B5"/>
<path d="M62.0654 22.6528H70.9321V25.1493H62.0654V22.6528Z" fill="#5D62B5"/>
<path d="M62.0654 27.6465H70.9321V30.143H62.0654V27.6465Z" fill="#5D62B5"/>
</g>
<defs>
<clipPath id="clip0">
<rect width="76" height="74.8953" fill="white" transform="translate(0 0.18457)"/>
</clipPath>
</defs>
</svg>
